# xmcd CD database file
#
# Track frame offsets:
#	150
#	41995
#	76127
#	92326
#	151115
#	167397
#	207487
#	247041
#
# Disc length: 3508 seconds
#
# Revision: 0
# Processed by: cddbd v1.5.2PL0 Copyright (c) Steve Scherf et al.
# Submitted via: CDex 1.70beta2
#
DISCID=580db208
DTITLE=Satoko Fujii - Bacchus
DYEAR=2006
DGENRE=Jazz
TTITLE0=Sunset in Savannah
TTITLE1=In the Town Called Empty
TTITLE2=Natsu Mae
TTITLE3=Flying Elephant
TTITLE4=Bacchus
TTITLE5=In the Town You Don't See on the Map
TTITLE6=Waltz for Godzilla
TTITLE7=Natsu Mae (with Effect)
EXTD=YEAR: 2006
EXTT0=
EXTT1=
EXTT2=
EXTT3=
EXTT4=
EXTT5=
EXTT6=
EXTT7=
PLAYORDER=
